<svg
  width="686"
  height="731"
  viewBox="0 0 686 731"
  fill="none"
  xmlns="http://www.w3.org/2000/svg"
>
  <path d="M686 559.069H-45V559.434H686V559.069Z" fill="#EBEBEB" />
  <path d="M612.754 572.987H479.858V573.353H612.754V572.987Z" fill="#EBEBEB" />
  <path d="M439.244 569.025H402.854V569.39H439.244V569.025Z" fill="#EBEBEB" />
  <path d="M522.417 586.569H465.998V586.934H522.417V586.569Z" fill="#EBEBEB" />
  <path d="M64.7962 584.113H31.6965V584.478H64.7962V584.113Z" fill="#EBEBEB" />
  <path d="M117.121 584.113H77.808V584.478H117.121V584.113Z" fill="#EBEBEB" />
  <path d="M284.17 577.943H215.689V578.309H284.17V577.943Z" fill="#EBEBEB" />
  <path
    d="M582.447 383.205C580.224 383.205 578.09 383.512 576.028 384.038C571.335 377.678 563.806 373.541 555.297 373.541C549.069 373.541 543.367 375.749 538.908 379.418C531.73 367.327 518.543 359.213 503.455 359.213C481.993 359.213 464.361 375.632 462.431 396.582C460.413 396.144 458.337 395.895 456.188 395.895C440.048 395.895 426.978 408.98 426.978 425.106C426.978 441.246 440.062 454.316 456.188 454.316C461.144 454.316 465.808 453.074 469.902 450.895C473.966 465.632 487.431 476.466 503.455 476.466C516.832 476.466 528.44 468.922 534.274 457.855C541.057 463.6 549.8 467.065 559.376 467.065C580.473 467.065 597.593 450.267 598.222 429.331C604.304 424.609 608.236 417.255 608.236 408.965C608.236 394.74 596.687 383.205 582.447 383.205Z"
    fill="#F5F5F5"
  />
  <path
    d="M61.2436 228.54C54.4014 225.557 46.4482 228.686 43.4657 235.514C36.6235 232.531 28.6702 235.66 25.6878 242.487C22.7053 249.329 25.834 257.283 32.6615 260.265L57.4132 271.069L68.2173 246.318C71.1998 239.476 68.0858 231.522 61.2436 228.54Z"
    fill="#F5F5F5"
  />
  <path
    d="M176.654 110.615C174.329 106.2 168.861 104.518 164.461 106.843C162.136 102.428 156.668 100.746 152.268 103.071C147.852 105.396 146.171 110.863 148.496 115.264L156.917 131.244L172.882 122.808C177.297 120.483 178.978 115.016 176.654 110.615Z"
    fill="#E6E6E6"
  />
  <path
    d="M544.142 74.3281C541.818 69.9128 536.35 68.2315 531.949 70.5561C529.625 66.1409 524.157 64.4596 519.756 66.7842C515.341 69.1087 513.66 74.5766 515.984 78.9772L524.405 94.9569L540.385 86.5358C544.771 84.1966 546.467 78.7433 544.142 74.3281Z"
    fill="#F5F5F5"
  />
  <path
    d="M602.651 338.555C602.081 334.915 598.675 332.415 595.034 332.985C594.464 329.345 591.058 326.845 587.417 327.415C583.777 327.985 581.277 331.392 581.847 335.032L583.894 348.219L597.081 346.172C600.722 345.617 603.207 342.196 602.651 338.555Z"
    fill="#EBEBEB"
  />
  <path
    d="M467.475 225.528C464.595 224.622 461.524 226.23 460.633 229.11C457.752 228.204 454.682 229.812 453.79 232.692C452.884 235.572 454.492 238.642 457.372 239.534L467.811 242.794L471.071 232.356C471.963 229.49 470.355 226.42 467.475 225.528Z"
    fill="#F5F5F5"
  />
  <path
    d="M62.2962 92.0621C59.4161 91.1557 56.3459 92.7639 55.454 95.644C52.5739 94.7376 49.5037 96.3458 48.6119 99.2259C47.7054 102.106 49.3136 105.176 52.1938 106.068L62.6325 109.328L65.8927 98.8897C66.7845 96.0241 65.1763 92.9686 62.2962 92.0621Z"
    fill="#F5F5F5"
  />
  <path
    d="M225.338 336.143C225.338 317.927 211.435 302.956 193.657 301.245C184.227 280.09 163.028 265.338 138.364 265.338C118.159 265.338 100.264 275.251 89.2701 290.47C84.1823 286.815 77.9688 284.637 71.229 284.637C54.1382 284.637 40.2785 298.497 40.2785 315.587C40.2785 318.277 40.6586 320.88 41.3019 323.365C31.0679 331.932 24.5474 344.783 24.5474 359.184C24.5474 384.974 45.454 405.866 71.229 405.866C84.8987 405.866 97.1649 399.945 105.703 390.588C114.753 402.313 128.934 409.886 144.885 409.886C168.554 409.886 188.321 393.263 193.189 371.056C211.201 369.564 225.338 354.52 225.338 336.143Z"
    fill="#EBEBEB"
  />
  <path
    d="M462.021 171.668C462.021 159.314 471.437 149.182 483.484 148.028C489.873 133.7 504.244 123.7 520.955 123.7C534.654 123.7 546.774 130.425 554.215 140.732C557.666 138.261 561.876 136.785 566.438 136.785C578.017 136.785 587.417 146.171 587.417 157.764C587.417 159.592 587.154 161.346 586.715 163.042C593.66 168.846 598.075 177.56 598.075 187.311C598.075 204.782 583.908 218.949 566.438 218.949C557.168 218.949 548.864 214.943 543.075 208.598C536.949 216.551 527.329 221.668 516.525 221.668C500.487 221.668 487.08 210.396 483.791 195.352C471.598 194.314 462.021 184.124 462.021 171.668Z"
    fill="#F0F0F0"
  />
  <path
    d="M405.837 262.794C468.703 279.783 524.259 274.988 563.324 338.248C600.268 398.073 582.271 449.009 532.68 491.495C403.161 602.476 303.789 451.495 161.084 422.591C36.7404 397.401 22.866 192.428 139.943 125.586C177.677 104.051 249.111 85.5708 286.757 117.91C339.506 163.232 319.418 239.446 405.837 262.794Z"
    fill="#407BFF"
  />
  <path
    opacity="0.9"
    d="M405.837 262.794C468.703 279.783 524.259 274.988 563.324 338.248C600.268 398.073 582.271 449.009 532.68 491.495C403.161 602.476 303.789 451.495 161.084 422.591C36.7404 397.401 22.866 192.428 139.943 125.586C177.677 104.051 249.111 85.5708 286.757 117.91C339.506 163.232 319.418 239.446 405.837 262.794Z"
    fill="white"
  />
  <path
    d="M320.5 625.093C477.055 625.093 603.967 617.683 603.967 608.543C603.967 599.403 477.055 591.993 320.5 591.993C163.945 591.993 37.0328 599.403 37.0328 608.543C37.0328 617.683 163.945 625.093 320.5 625.093Z"
    fill="#F5F5F5"
  />
  <path
    d="M153.993 571.276H74.5623C70.6588 571.276 67.5009 568.119 67.5009 564.215V531.612C67.5009 529.946 68.0857 528.338 69.1529 527.066L158.92 420.354C160.265 418.761 162.238 417.84 164.329 417.84H198.73C202.634 417.84 205.791 420.998 205.791 424.901V524.361C205.791 528.264 208.949 531.422 212.853 531.422H221.932C225.835 531.422 228.993 534.58 228.993 538.484V564.2C228.993 568.104 225.835 571.262 221.932 571.262H212.853C208.949 571.262 205.791 574.42 205.791 578.323V598.747C205.791 602.651 202.634 605.809 198.73 605.809H168.101C164.198 605.809 161.04 602.651 161.04 598.747V578.323C161.054 574.434 157.896 571.276 153.993 571.276ZM161.054 526.495V486.729C161.054 482.124 155.323 480.018 152.341 483.527L118.539 523.294C115.805 526.51 118.086 531.437 122.311 531.437H156.113C158.847 531.437 161.054 529.229 161.054 526.495Z"
    fill="#263238"
  />
  <path
    d="M245.017 512.665C245.017 477.533 251.347 452.942 263.994 438.907C276.64 424.872 295.909 417.854 321.801 417.854C334.243 417.854 344.447 419.389 352.43 422.46C360.413 425.53 366.933 429.521 371.977 434.448C377.021 439.36 380.997 444.536 383.892 449.945C386.787 455.369 389.126 461.685 390.895 468.922C394.346 482.709 396.071 497.08 396.071 512.036C396.071 545.575 390.398 570.122 379.053 585.663C367.708 601.218 348.161 608.981 320.427 608.981C304.871 608.981 292.313 606.496 282.736 601.555C273.16 596.598 265.295 589.318 259.154 579.742C254.695 572.943 251.23 563.63 248.76 551.817C246.26 540.004 245.017 526.949 245.017 512.665ZM295.953 512.782C295.953 536.32 298.029 552.387 302.196 560.999C306.362 569.624 312.386 573.923 320.281 573.923C325.485 573.923 330.003 572.095 333.833 568.44C337.664 564.785 340.471 559.01 342.284 551.101C344.097 543.206 344.988 530.896 344.988 514.171C344.988 489.624 342.912 473.132 338.746 464.682C334.579 456.232 328.351 452.007 320.032 452.007C311.538 452.007 305.412 456.319 301.625 464.931C297.839 473.556 295.953 489.507 295.953 512.782Z"
    fill="#263238"
  />
  <path
    d="M498.411 571.276H418.995C415.091 571.276 411.933 568.119 411.933 564.215V531.612C411.933 529.946 412.518 528.338 413.585 527.066L503.352 420.354C504.697 418.761 506.671 417.84 508.762 417.84H543.162C547.066 417.84 550.224 420.998 550.224 424.901V524.361C550.224 528.264 553.382 531.422 557.285 531.422H566.364C570.268 531.422 573.426 534.58 573.426 538.484V564.2C573.426 568.104 570.268 571.262 566.364 571.262H557.285C553.382 571.262 550.224 574.42 550.224 578.323V598.747C550.224 602.651 547.066 605.809 543.162 605.809H512.534C508.63 605.809 505.472 602.651 505.472 598.747V578.323C505.472 574.434 502.314 571.276 498.411 571.276ZM505.472 526.495V486.729C505.472 482.124 499.741 480.018 496.759 483.527L462.957 523.294C460.223 526.51 462.504 531.437 466.729 531.437H500.531C503.264 531.437 505.472 529.229 505.472 526.495Z"
    fill="#263238"
  />
  <path
    d="M185.733 436.963C184.373 439.828 182.94 442.533 181.552 445.237L177.458 453.352L173.364 461.495C171.975 464.229 170.572 466.963 168.876 469.653C169.095 466.48 169.768 463.41 170.674 460.413C171.581 457.416 172.721 454.492 174.139 451.685C175.543 448.878 177.209 446.188 179.11 443.688C181.025 441.188 183.189 438.863 185.733 436.963Z"
    fill="white"
  />
  <path
    d="M190.937 443.834C189.68 446.363 188.35 448.746 187.063 451.144L183.277 458.308L179.49 465.501C178.203 467.913 176.902 470.325 175.353 472.708C175.601 469.887 176.244 467.153 177.107 464.507C177.94 461.846 179.037 459.258 180.338 456.773C181.639 454.302 183.145 451.904 184.914 449.726C186.654 447.518 188.628 445.486 190.937 443.834Z"
    fill="white"
  />
  <path
    d="M176.727 434.082C175.601 436.714 174.402 439.185 173.233 441.67L169.797 449.112L166.361 456.568C165.192 459.068 164.007 461.583 162.575 464.053C162.692 461.188 163.203 458.41 163.934 455.691C164.651 452.957 165.616 450.296 166.785 447.723C167.969 445.15 169.358 442.679 171.01 440.369C172.648 438.059 174.505 435.881 176.727 434.082Z"
    fill="white"
  />
  <path
    d="M512.081 545.194C514.624 547.095 516.788 549.434 518.689 551.934C520.589 554.434 522.256 557.124 523.66 559.931C525.078 562.738 526.218 565.662 527.125 568.66C528.031 571.657 528.703 574.727 528.923 577.899C527.241 575.209 525.823 572.461 524.434 569.741L520.341 561.598L516.247 553.484C514.858 550.75 513.44 548.06 512.081 545.194Z"
    fill="white"
  />
  <path
    d="M506.876 552.066C509.186 553.718 511.159 555.75 512.899 557.958C514.668 560.151 516.159 562.534 517.475 565.005C518.776 567.49 519.873 570.063 520.706 572.738C521.569 575.399 522.212 578.119 522.461 580.94C520.911 578.572 519.61 576.145 518.323 573.733L514.537 566.54L510.75 559.376C509.449 556.978 508.133 554.595 506.876 552.066Z"
    fill="white"
  />
  <path
    d="M521.072 542.314C523.294 544.113 525.165 546.291 526.788 548.601C528.44 550.911 529.829 553.396 531.013 555.955C532.183 558.528 533.163 561.189 533.864 563.923C534.595 566.642 535.107 569.434 535.224 572.285C533.791 569.815 532.607 567.3 531.437 564.8L528.002 557.344L524.566 549.902C523.411 547.417 522.198 544.946 521.072 542.314Z"
    fill="white"
  />
  <path
    d="M392.313 587.168H411.729V592.168H399.565V595.897H410.837V600.677H399.565V605.297H412.079V610.604H392.299V587.168H392.313Z"
    fill="#156419"
  />
  <path
    d="M412.08 613.441H392.299C390.734 613.441 389.477 612.183 389.477 610.619V587.168C389.477 585.604 390.734 584.347 392.299 584.347H411.714C413.278 584.347 414.536 585.604 414.536 587.168V592.168C414.536 593.148 414.039 593.996 413.293 594.508C413.527 594.917 413.659 595.385 413.659 595.897V600.677C413.659 601.423 413.366 602.095 412.898 602.607C414.053 602.958 414.887 604.04 414.887 605.297V610.604C414.901 612.169 413.644 613.441 412.08 613.441ZM395.135 607.797H398.264C397.372 607.329 396.758 606.394 396.758 605.312V600.692C396.758 599.683 397.284 598.806 398.088 598.294C397.299 597.797 396.758 596.905 396.758 595.897V592.168C396.758 591.291 397.167 590.502 397.796 589.975H395.135V607.797Z"
    fill="#156419"
  />
  <path
    d="M416.085 610.619V587.168H428.162C430.398 587.168 432.109 587.359 433.293 587.739C434.477 588.119 435.428 588.835 436.159 589.873C436.89 590.911 437.241 592.183 437.241 593.674C437.241 594.976 436.963 596.101 436.407 597.037C435.852 597.987 435.091 598.747 434.112 599.332C433.498 599.712 432.65 600.019 431.568 600.253C432.431 600.546 433.059 600.824 433.454 601.116C433.717 601.306 434.112 601.715 434.609 602.344C435.121 602.973 435.457 603.455 435.618 603.806L439.127 610.604H430.939L427.065 603.441C426.568 602.519 426.144 601.905 425.749 601.628C425.223 601.262 424.638 601.087 423.98 601.087H423.337V610.604H416.085V610.619ZM423.366 596.671H426.422C426.758 596.671 427.387 596.569 428.337 596.35C428.819 596.247 429.214 596.014 429.507 595.619C429.814 595.224 429.96 594.771 429.96 594.259C429.96 593.499 429.726 592.914 429.243 592.519C428.761 592.11 427.869 591.905 426.539 591.905H423.352V596.671H423.366Z"
    fill="#156419"
  />
  <path
    d="M439.156 613.441H430.969C429.931 613.441 428.98 612.87 428.483 611.964L426.188 607.71V610.634C426.188 612.198 424.931 613.455 423.366 613.455H416.086C414.521 613.455 413.264 612.198 413.264 610.634V587.183C413.264 585.619 414.521 584.361 416.086 584.361H428.162C430.72 584.361 432.694 584.595 434.17 585.078C435.94 585.648 437.402 586.73 438.469 588.28C439.521 589.8 440.062 591.613 440.062 593.689C440.062 595.487 439.653 597.11 438.834 598.484C438.323 599.347 437.694 600.107 436.934 600.765C437.518 601.496 437.899 602.081 438.147 602.578L441.641 609.332C442.095 610.21 442.051 611.248 441.539 612.096C441.057 612.929 440.135 613.441 439.156 613.441ZM432.65 607.797H434.536L433.147 605.122C433.118 605.078 432.986 604.829 432.431 604.128C431.977 603.572 431.787 603.397 431.773 603.382C431.773 603.382 431.495 603.207 430.691 602.943C430.325 602.826 429.989 602.622 429.711 602.388L432.65 607.797ZM418.907 607.797H420.545V601.101C420.545 600.195 420.969 599.405 421.627 598.879C420.969 598.367 420.545 597.563 420.545 596.657V591.891C420.545 591.145 420.822 590.473 421.29 589.975H418.893V607.797H418.907ZM427.475 599.391C427.957 599.756 428.396 600.239 428.834 600.867C428.79 600.633 428.761 600.385 428.776 600.136C428.79 599.771 428.878 599.405 429.039 599.098C428.995 599.113 428.951 599.113 428.907 599.128C428.337 599.245 427.869 599.332 427.475 599.391ZM430.735 590.107C430.852 590.18 430.954 590.268 431.071 590.356C431.861 591.013 432.796 592.227 432.796 594.259C432.796 595.37 432.445 596.423 431.773 597.3C432.255 597.154 432.533 597.008 432.665 596.92C433.235 596.569 433.659 596.145 433.98 595.604C434.273 595.093 434.419 594.464 434.419 593.66C434.419 592.753 434.229 592.037 433.834 591.467C433.454 590.926 433.016 590.59 432.416 590.399C432.094 590.312 431.554 590.195 430.735 590.107Z"
    fill="#156419"
  />
  <path
    d="M441.568 610.619V587.168H453.644C455.881 587.168 457.592 587.359 458.776 587.739C459.96 588.119 460.91 588.835 461.641 589.873C462.372 590.911 462.723 592.183 462.723 593.674C462.723 594.976 462.445 596.101 461.89 597.037C461.334 597.987 460.574 598.747 459.595 599.332C458.981 599.712 458.133 600.019 457.051 600.253C457.913 600.546 458.542 600.824 458.937 601.116C459.2 601.306 459.595 601.715 460.092 602.344C460.603 602.973 460.94 603.455 461.1 603.806L464.609 610.604H456.422L452.548 603.441C452.051 602.519 451.627 601.905 451.232 601.628C450.706 601.262 450.121 601.087 449.463 601.087H448.82V610.604H441.568V610.619ZM448.849 596.671H451.904C452.241 596.671 452.869 596.569 453.82 596.35C454.302 596.247 454.697 596.014 454.989 595.619C455.296 595.224 455.442 594.771 455.442 594.259C455.442 593.499 455.209 592.914 454.726 592.519C454.244 592.11 453.352 591.905 452.021 591.905H448.834V596.671H448.849Z"
    fill="#156419"
  />
  <path
    d="M464.639 613.441H456.451C455.413 613.441 454.463 612.87 453.966 611.964L451.671 607.71V610.634C451.671 612.198 450.413 613.455 448.849 613.455H441.568C440.004 613.455 438.747 612.198 438.747 610.634V587.183C438.747 585.619 440.004 584.361 441.568 584.361H453.644C456.203 584.361 458.177 584.595 459.653 585.078C461.422 585.648 462.884 586.73 463.966 588.28C465.019 589.8 465.56 591.613 465.56 593.689C465.56 595.487 465.15 597.11 464.332 598.484C463.82 599.347 463.191 600.107 462.431 600.765C463.016 601.496 463.396 602.081 463.644 602.578L467.139 609.332C467.592 610.21 467.548 611.248 467.036 612.096C466.539 612.929 465.618 613.441 464.639 613.441ZM458.133 607.797H460.019L458.63 605.122C458.601 605.078 458.469 604.829 457.913 604.128C457.46 603.572 457.27 603.397 457.256 603.382C457.256 603.382 456.978 603.207 456.174 602.943C455.808 602.826 455.472 602.622 455.194 602.388L458.133 607.797ZM444.39 607.797H446.027V601.101C446.027 600.195 446.451 599.405 447.109 598.879C446.451 598.367 446.027 597.563 446.027 596.657V591.891C446.027 591.145 446.305 590.473 446.773 589.975H444.375V607.797H444.39ZM452.957 599.391C453.44 599.756 453.878 600.239 454.317 600.867C454.273 600.633 454.244 600.385 454.258 600.136C454.273 599.771 454.361 599.405 454.522 599.098C454.478 599.113 454.434 599.113 454.39 599.128C453.82 599.245 453.352 599.332 452.957 599.391ZM456.232 590.107C456.349 590.18 456.451 590.268 456.568 590.356C457.358 591.013 458.294 592.227 458.294 594.259C458.294 595.37 457.943 596.423 457.27 597.3C457.753 597.154 458.03 597.008 458.162 596.92C458.732 596.569 459.156 596.145 459.478 595.604C459.77 595.093 459.916 594.464 459.916 593.66C459.916 592.753 459.726 592.037 459.332 591.467C458.951 590.926 458.513 590.59 457.913 590.399C457.577 590.312 457.036 590.195 456.232 590.107Z"
    fill="#156419"
  />
  <path
    d="M465.487 598.908C465.487 595.078 466.554 592.095 468.688 589.961C470.823 587.826 473.791 586.759 477.607 586.759C481.51 586.759 484.522 587.812 486.627 589.902C488.732 591.993 489.8 594.932 489.8 598.704C489.8 601.452 489.332 603.689 488.411 605.443C487.49 607.198 486.159 608.558 484.405 609.537C482.665 610.517 480.487 610.999 477.884 610.999C475.238 610.999 473.045 610.575 471.32 609.742C469.58 608.894 468.177 607.563 467.109 605.736C466.027 603.923 465.487 601.642 465.487 598.908ZM472.738 598.938C472.738 601.306 473.177 603.002 474.054 604.04C474.931 605.078 476.13 605.59 477.65 605.59C479.2 605.59 480.414 605.078 481.262 604.069C482.109 603.06 482.548 601.233 482.548 598.616C482.548 596.408 482.109 594.8 481.218 593.777C480.326 592.753 479.112 592.256 477.592 592.256C476.13 592.256 474.96 592.768 474.069 593.806C473.177 594.844 472.738 596.554 472.738 598.938Z"
    fill="#156419"
  />
  <path
    d="M477.884 613.835C474.814 613.835 472.197 613.309 470.092 612.286C467.855 611.204 466.042 609.479 464.682 607.183C463.352 604.932 462.679 602.139 462.679 598.908C462.679 594.318 464.039 590.648 466.7 587.973C469.375 585.297 473.045 583.952 477.606 583.952C482.256 583.952 485.969 585.282 488.615 587.914C491.276 590.546 492.621 594.186 492.621 598.718C492.621 601.905 492.051 604.625 490.911 606.774C489.741 609.011 488.016 610.78 485.794 612.022C483.615 613.221 480.969 613.835 477.884 613.835ZM479.843 589.727C481.203 590.107 482.387 590.853 483.323 591.92C484.697 593.484 485.355 595.677 485.355 598.616C485.355 601.949 484.726 604.332 483.411 605.882C482.767 606.657 481.759 607.519 480.267 608.002C481.335 607.826 482.256 607.519 483.031 607.081C484.302 606.364 485.238 605.4 485.911 604.128C486.612 602.797 486.978 600.97 486.978 598.704C486.978 595.677 486.218 593.455 484.639 591.891C483.454 590.736 481.875 590.019 479.843 589.727ZM475.326 589.742C473.381 590.049 471.861 590.78 470.691 591.949C469.098 593.543 468.323 595.823 468.323 598.894C468.323 601.116 468.732 602.929 469.551 604.303C470.355 605.648 471.334 606.598 472.577 607.198C473.25 607.519 474.039 607.768 474.931 607.929C473.776 607.505 472.753 606.803 471.934 605.838C470.589 604.259 469.946 601.993 469.946 598.908C469.946 595.794 470.603 593.514 471.949 591.935C472.84 590.897 473.995 590.136 475.326 589.742ZM477.577 595.078C476.788 595.078 476.451 595.356 476.203 595.648C476.057 595.823 475.56 596.598 475.56 598.952C475.56 601.291 476.057 602.052 476.203 602.227C476.451 602.519 476.802 602.783 477.65 602.783C478.674 602.783 478.966 602.432 479.112 602.271C479.171 602.198 479.726 601.452 479.726 598.631C479.726 596.598 479.273 595.867 479.083 595.648C478.835 595.356 478.469 595.078 477.577 595.078Z"
    fill="#156419"
  />
  <path
    d="M493.791 610.619V587.168H505.867C508.104 587.168 509.814 587.359 510.998 587.739C512.183 588.119 513.133 588.835 513.864 589.873C514.595 590.911 514.946 592.183 514.946 593.674C514.946 594.976 514.668 596.101 514.113 597.037C513.557 597.987 512.797 598.747 511.817 599.332C511.203 599.712 510.355 600.019 509.273 600.253C510.136 600.546 510.765 600.824 511.159 601.116C511.422 601.306 511.817 601.715 512.314 602.344C512.826 602.973 513.162 603.455 513.323 603.806L516.832 610.604H508.645L504.77 603.441C504.273 602.519 503.849 601.905 503.455 601.628C502.928 601.262 502.343 601.087 501.686 601.087H501.042V610.604H493.791V610.619ZM501.072 596.671H504.127C504.463 596.671 505.092 596.569 506.042 596.35C506.525 596.247 506.92 596.014 507.212 595.619C507.519 595.224 507.665 594.771 507.665 594.259C507.665 593.499 507.431 592.914 506.949 592.519C506.466 592.11 505.574 591.905 504.244 591.905H501.057V596.671H501.072Z"
    fill="#156419"
  />
  <path
    d="M516.861 613.441H508.674C507.636 613.441 506.686 612.87 506.189 611.964L503.879 607.71V610.634C503.879 612.198 502.621 613.455 501.057 613.455H493.776C492.227 613.455 490.955 612.198 490.955 610.634V587.183C490.955 585.619 492.212 584.361 493.776 584.361H505.852C508.411 584.361 510.385 584.595 511.861 585.078C513.63 585.648 515.092 586.73 516.174 588.28C517.227 589.8 517.768 591.613 517.768 593.689C517.768 595.502 517.358 597.11 516.54 598.484C516.028 599.347 515.399 600.107 514.639 600.765C515.224 601.496 515.604 602.081 515.852 602.563L519.347 609.332C519.8 610.21 519.756 611.248 519.244 612.096C518.762 612.929 517.841 613.441 516.861 613.441ZM510.355 607.797H512.241L510.852 605.122C510.838 605.078 510.692 604.829 510.136 604.128C509.683 603.572 509.493 603.397 509.478 603.382C509.478 603.382 509.2 603.207 508.396 602.943C508.031 602.826 507.695 602.622 507.417 602.388L510.355 607.797ZM496.613 607.797H498.25V601.101C498.25 600.195 498.674 599.405 499.332 598.879C498.674 598.367 498.25 597.563 498.25 596.657V591.891C498.25 591.145 498.528 590.473 498.996 589.975H496.598V607.797H496.613ZM505.18 599.391C505.662 599.756 506.101 600.239 506.54 600.867C506.496 600.633 506.466 600.385 506.481 600.136C506.496 599.771 506.583 599.405 506.744 599.098C506.7 599.113 506.656 599.113 506.613 599.128C506.042 599.245 505.575 599.332 505.18 599.391ZM508.455 590.107C508.572 590.18 508.674 590.268 508.776 590.356C509.566 591.013 510.502 592.242 510.502 594.259C510.502 595.37 510.151 596.438 509.478 597.315C509.961 597.154 510.238 597.022 510.385 596.935C510.955 596.584 511.379 596.16 511.7 595.619C511.993 595.107 512.139 594.478 512.139 593.674C512.139 592.768 511.949 592.052 511.554 591.481C511.189 590.94 510.735 590.604 510.136 590.414C509.8 590.312 509.259 590.195 508.455 590.107Z"
    fill="#156419"
  />
  <path
    d="M392.313 587.168H411.729V592.168H399.565V595.897H410.837V600.677H399.565V605.297H412.08V610.604H392.299V587.168H392.313Z"
    fill="white"
  />
  <path
    d="M416.086 610.619V587.168H428.162C430.399 587.168 432.109 587.359 433.293 587.739C434.478 588.119 435.428 588.835 436.159 589.873C436.89 590.911 437.241 592.183 437.241 593.674C437.241 594.976 436.963 596.101 436.407 597.037C435.852 597.987 435.092 598.747 434.112 599.332C433.498 599.712 432.65 600.019 431.568 600.253C432.431 600.546 433.06 600.824 433.454 601.116C433.717 601.306 434.112 601.715 434.609 602.344C435.121 602.973 435.457 603.455 435.618 603.806L439.127 610.604H430.94L427.065 603.44C426.568 602.519 426.144 601.905 425.749 601.628C425.223 601.262 424.638 601.087 423.98 601.087H423.337V610.604H416.086V610.619ZM423.366 596.671H426.422C426.758 596.671 427.387 596.569 428.337 596.35C428.82 596.247 429.214 596.014 429.507 595.619C429.814 595.224 429.96 594.771 429.96 594.259C429.96 593.499 429.726 592.914 429.244 592.519C428.761 592.11 427.869 591.905 426.539 591.905H423.352V596.671H423.366Z"
    fill="white"
  />
  <path
    d="M441.568 610.619V587.168H453.644C455.881 587.168 457.592 587.359 458.776 587.739C459.96 588.119 460.911 588.835 461.642 589.873C462.373 590.911 462.724 592.183 462.724 593.674C462.724 594.976 462.446 596.101 461.89 597.037C461.335 597.987 460.574 598.747 459.595 599.332C458.981 599.712 458.133 600.019 457.051 600.253C457.914 600.546 458.542 600.824 458.937 601.116C459.2 601.306 459.595 601.715 460.092 602.344C460.604 602.973 460.94 603.455 461.101 603.806L464.609 610.604H456.422L452.548 603.44C452.051 602.519 451.627 601.905 451.232 601.628C450.706 601.262 450.121 601.087 449.463 601.087H448.82V610.604H441.568V610.619ZM448.849 596.671H451.905C452.241 596.671 452.87 596.569 453.82 596.35C454.302 596.247 454.697 596.014 454.99 595.619C455.297 595.224 455.443 594.771 455.443 594.259C455.443 593.499 455.209 592.914 454.726 592.519C454.244 592.11 453.352 591.905 452.022 591.905H448.835V596.671H448.849Z"
    fill="white"
  />
  <path
    d="M465.487 598.908C465.487 595.078 466.554 592.095 468.688 589.961C470.823 587.826 473.791 586.759 477.607 586.759C481.51 586.759 484.522 587.812 486.627 589.902C488.732 591.993 489.8 594.932 489.8 598.704C489.8 601.452 489.332 603.689 488.411 605.443C487.49 607.198 486.159 608.558 484.405 609.537C482.665 610.517 480.487 610.999 477.884 610.999C475.238 610.999 473.045 610.575 471.32 609.742C469.58 608.894 468.177 607.563 467.109 605.736C466.027 603.923 465.487 601.642 465.487 598.908ZM472.738 598.938C472.738 601.306 473.177 603.002 474.054 604.04C474.931 605.078 476.13 605.59 477.65 605.59C479.2 605.59 480.414 605.078 481.262 604.069C482.109 603.06 482.548 601.233 482.548 598.616C482.548 596.408 482.109 594.8 481.218 593.777C480.326 592.753 479.112 592.256 477.592 592.256C476.13 592.256 474.96 592.768 474.069 593.806C473.177 594.844 472.738 596.554 472.738 598.938Z"
    fill="white"
  />
  <path
    d="M493.791 610.619V587.168H505.867C508.104 587.168 509.814 587.359 510.998 587.739C512.183 588.119 513.133 588.835 513.864 589.873C514.595 590.911 514.946 592.183 514.946 593.674C514.946 594.976 514.668 596.101 514.113 597.037C513.557 597.987 512.797 598.747 511.817 599.332C511.203 599.712 510.355 600.019 509.273 600.253C510.136 600.546 510.765 600.824 511.159 601.116C511.422 601.306 511.817 601.715 512.314 602.344C512.826 602.973 513.162 603.455 513.323 603.806L516.832 610.604H508.645L504.77 603.44C504.273 602.519 503.849 601.905 503.455 601.628C502.928 601.262 502.343 601.087 501.686 601.087H501.042V610.604H493.791V610.619ZM501.072 596.671H504.127C504.463 596.671 505.092 596.569 506.042 596.35C506.525 596.247 506.92 596.014 507.212 595.619C507.519 595.224 507.665 594.771 507.665 594.259C507.665 593.499 507.431 592.914 506.949 592.519C506.466 592.11 505.574 591.905 504.244 591.905H501.057V596.671H501.072Z"
    fill="white"
  />
  <path
    d="M578.543 228.481C572.373 226.537 565.896 225.557 559.464 225.689C553.075 225.791 546.642 226.99 541.218 229.212C538.528 230.309 536.072 231.698 534.376 233.072C534.186 233.247 533.952 233.408 533.776 233.569C533.586 233.759 533.455 233.847 533.191 234.125C532.709 234.593 532.241 235.104 531.773 235.616C530.852 236.654 529.99 237.78 529.186 238.964C525.955 243.686 523.791 249.446 523.133 255.075C522.782 257.897 522.84 260.675 523.25 263.292C523.455 264.593 523.747 265.865 524.142 267.064C524.551 268.277 524.99 269.374 525.633 270.66C526.905 273.189 528.805 276.026 531.042 279.184C533.279 282.371 535.852 285.85 538.367 290.09C540.852 294.286 543.294 299.432 544.463 305.397C545.034 308.336 545.268 311.552 545.107 314.637C544.946 317.736 544.376 320.734 543.513 323.584C541.773 329.286 538.908 334.389 535.18 338.745C533.323 340.909 531.189 342.941 528.966 344.681C526.773 346.392 524.419 347.912 521.978 349.184C517.095 351.728 511.905 353.365 506.832 354.213C501.744 355.076 496.729 355.237 491.875 354.901C487.036 354.579 482.299 353.775 477.767 352.605C473.293 351.465 469.039 350.017 464.96 348.468C456.846 345.339 449.477 341.772 442.445 338.745C435.428 335.704 428.658 333.19 422.123 331.903C418.848 331.231 415.705 330.938 412.489 330.938C409.272 330.938 405.997 331.26 402.708 331.889C396.129 333.146 389.521 335.558 383.161 338.775C370.398 345.222 358.57 355.047 346.348 365.354L346.333 365.368C341.699 369.272 334.783 368.687 330.88 364.053C327.02 359.477 327.561 352.649 332.064 348.716C344.126 338.204 356.83 326.918 372.591 318.497C380.442 314.33 388.951 310.953 398.088 309.008C402.649 308.058 407.372 307.473 412.167 307.371C416.962 307.269 421.86 307.663 426.451 308.497C435.691 310.149 444.068 313.19 451.817 316.348C459.565 319.52 466.714 322.78 473.615 325.266C477.065 326.508 480.428 327.561 483.732 328.336C486.978 329.111 490.194 329.564 493.352 329.71C499.668 330.017 505.53 328.935 509.887 326.494C510.984 325.894 511.992 325.193 512.943 324.432C513.864 323.672 514.624 322.912 515.355 322.02C516.802 320.251 517.855 318.175 518.411 316.201C518.688 315.207 518.835 314.242 518.849 313.321C518.864 312.4 518.791 311.596 518.586 310.602C518.162 308.687 517.183 306.45 515.545 303.804C513.922 301.172 511.7 298.219 509.258 294.9C506.817 291.567 504.098 287.824 501.641 283.248C500.428 280.982 499.273 278.394 498.367 275.821C497.46 273.233 496.788 270.602 496.32 267.955C495.37 262.663 495.209 257.356 495.72 252.21C496.744 241.903 500.209 232.151 505.808 223.511C507.212 221.347 508.761 219.256 510.443 217.253C511.305 216.259 512.182 215.28 513.104 214.329C513.513 213.876 514.142 213.306 514.668 212.794C515.223 212.268 515.779 211.815 516.335 211.317C520.823 207.589 525.458 205.046 530.136 203.013C539.493 199.037 549.098 197.224 558.703 196.888C568.309 196.566 577.899 197.867 587.066 200.586C594.785 202.882 599.186 210.996 596.891 218.73C594.595 226.449 586.481 230.85 578.747 228.554C578.718 228.54 578.601 228.496 578.543 228.481Z"
    fill="#263238"
  />
  <path
    d="M578.192 229.666C570.37 227.063 561.949 225.894 553.762 226.698C549.698 227.092 545.692 227.926 542.081 229.212C538.499 230.47 535.326 232.312 533.426 233.935L532.578 234.651C526.642 239.695 517.738 238.979 512.694 233.043C507.899 227.414 508.352 219.051 513.499 213.92C519.157 208.291 525.209 204.841 531.291 202.195C537.402 199.636 543.616 197.984 549.902 197.005C562.461 195.075 575.268 196.069 587.447 199.402C595.882 201.712 600.853 210.426 598.543 218.861C596.233 227.297 587.52 232.268 579.084 229.958C578.821 229.885 578.572 229.812 578.309 229.724L578.192 229.666Z"
    fill="#08B74F"
  />
  <path
    d="M305.587 410.603L311.011 419.053C305.544 421.904 299.842 421.48 294.038 421.48C291.567 410.047 305.587 410.603 305.587 410.603Z"
    fill="#263238"
  />
  <path
    d="M272.532 365.559C279.447 385.456 305.09 411.831 305.09 411.831C305.09 411.831 294.286 414.009 297.21 421.48H312.313L344.828 415.354C347.094 414.799 348.527 412.65 348.161 410.354L336.143 370.091L272.532 365.559Z"
    fill="#08B74F"
  />
  <path
    d="M398.658 376.889L401.568 388.76C407.299 386.494 412.138 384.93 414.624 379.623C411.758 372.211 398.658 376.889 398.658 376.889Z"
    fill="#263238"
  />
  <path
    d="M372.986 316.055C383.249 334.374 404.799 379.082 404.799 379.082C404.799 379.082 415.895 379.564 414.404 387.342L371.451 397.956C369.491 398.658 367.313 397.956 366.129 396.261L335.485 370.266C352.167 359.974 371.597 333.117 372.986 316.055Z"
    fill="#08B74F"
  />
  <path
    opacity="0.1"
    d="M353.073 354.52C347.474 361.041 341.304 366.67 335.471 370.266L344.272 377.415C353.76 368.95 356.45 359.886 353.073 354.52Z"
    fill="black"
  />
  <path
    d="M342.137 262.824C354.067 264.871 403.6 258.131 407.299 257.97C407.693 255.236 408.951 248.467 411.919 249.666C414.886 250.865 416.407 255.982 415.808 258.379C422.84 257.122 432.08 271.493 421.568 283.292C406.158 300.573 349.944 303.219 349.944 303.219C349.944 303.219 319.418 265.689 342.137 262.824Z"
    fill="#08B74F"
  />
  <path
    opacity="0.1"
    d="M345.851 285.821C342.839 285.616 340.529 285.923 338.79 286.596C343.556 295.368 349.93 303.204 349.93 303.204C349.93 303.204 361.26 302.663 375.149 300.529C367.532 295.061 355.412 287.356 345.851 285.821Z"
    fill="black"
  />
  <path
    d="M415.808 258.379C422.913 255.411 427.884 253.993 429.521 256.435C431.159 258.876 428.98 264.008 422.109 265.353C415.793 261.391 415.808 258.379 415.808 258.379Z"
    fill="#08B74F"
  />
  <path
    d="M420.428 264.461C427.913 264.213 432.928 264.651 433.571 267.429C434.214 270.207 430.457 274.125 423.746 272.97C419.375 267.21 420.428 264.461 420.428 264.461Z"
    fill="#08B74F"
  />
  <path
    d="M425.15 272.107C429.975 274.344 432.913 276.318 432.036 278.672C431.159 281.026 426.992 282.839 423.308 279.768C423.22 273.877 425.15 272.107 425.15 272.107Z"
    fill="#08B74F"
  />
  <path
    d="M250.543 300.207C245.046 310.982 210.016 346.669 207.677 349.52C205.25 348.19 199.066 345.164 198.262 348.248C197.458 351.348 200.63 355.617 202.926 356.582C197.721 361.465 203.701 377.474 219.432 376.1C242.488 374.082 278.233 330.617 278.233 330.617C278.233 330.617 266.435 283.701 250.543 300.207Z"
    fill="#08B74F"
  />
  <path
    opacity="0.1"
    d="M266.742 316.932C268.38 314.403 270.002 312.722 271.581 311.742C275.763 320.807 278.234 330.617 278.234 330.617C278.234 330.617 271.026 339.389 260.997 349.228C261.187 339.842 262.254 325.514 266.742 316.932Z"
    fill="black"
  />
  <path
    d="M202.911 356.582C196.288 360.5 192.18 363.643 193.16 366.406C194.139 369.17 199.563 370.5 204.739 365.792C205.338 358.38 202.911 356.582 202.911 356.582Z"
    fill="#08B74F"
  />
  <path
    d="M205.031 363.936C200.353 369.784 197.706 374.067 199.549 376.246C201.391 378.424 206.785 377.752 209.87 371.684C207.867 364.725 205.031 363.936 205.031 363.936Z"
    fill="#08B74F"
  />
  <path
    d="M208.335 372.284C207.253 377.488 207.063 381.026 209.476 381.728C211.888 382.43 215.821 380.179 215.558 375.383C210.908 371.801 208.335 372.284 208.335 372.284Z"
    fill="#08B74F"
  />
  <path
    opacity="0.1"
    d="M336.187 370.193L336.158 370.12L316.699 368.731C316.304 377.108 326.07 382.415 339.155 380.164L336.187 370.193Z"
    fill="black"
  />
  <path
    d="M339.784 269.549L299.681 286.727L259.578 303.906C259.578 303.906 263.847 355.749 277.005 373.512C290.163 391.275 315.573 385.807 338.015 376.187C360.456 366.567 381.933 351.947 378.161 330.178C374.36 308.394 339.784 269.549 339.784 269.549Z"
    fill="#08B74F"
  />
  <path
    opacity="0.2"
    d="M322.327 279.271L300.485 288.628L278.643 297.985C278.979 293.73 270.046 333.321 285.251 354.403C295.163 368.146 313.672 364.374 329.944 357.415C346.216 350.441 361.714 339.637 358.6 322.985C353.833 297.415 319.023 276.581 322.327 279.271Z"
    fill="white"
  />
  <path
    opacity="0.2"
    d="M315.383 285.412L300.821 291.654L286.26 297.897C286.377 294.827 281.318 323.292 292.152 338.965C299.213 349.184 311.655 346.918 322.503 342.269C333.351 337.62 343.57 330.178 341.056 318.029C337.181 299.359 313.073 283.38 315.383 285.412Z"
    fill="white"
  />
  <path
    opacity="0.2"
    d="M215.484 361.918C216.917 365.485 215.835 369.287 213.072 370.398C210.309 371.509 206.902 369.506 205.47 365.939C204.037 362.371 205.119 358.57 207.882 357.459C210.645 356.348 214.052 358.351 215.484 361.918Z"
    fill="white"
  />
  <path
    opacity="0.2"
    d="M422.08 271.698C422.357 275.543 420.179 278.833 417.211 279.052C414.243 279.271 411.597 276.333 411.319 272.502C411.042 268.657 413.22 265.368 416.188 265.148C419.156 264.929 421.802 267.868 422.08 271.698Z"
    fill="white"
  />
  <path
    d="M211.859 175.425C153.569 134.153 64.0067 159.475 56.9745 175.06C49.489 191.654 130.615 236.347 150.572 279.534C179.636 225.499 211.859 175.425 211.859 175.425Z"
    fill="#263238"
  />
  <path
    opacity="0.5"
    d="M190.338 192.355C144.197 160.133 79.1384 174.665 74.9278 185.63C70.4395 197.297 133.817 232.941 151.522 264.944C169.622 227.151 190.338 192.355 190.338 192.355Z"
    fill="#08B74F"
  />
  <path
    d="M196.128 184.548C183.057 185.425 171.99 189.811 162.239 200.104C178.101 195.499 188.028 205.44 188.028 205.44L196.128 184.548Z"
    fill="#263238"
  />
  <path
    d="M281.611 145.542C309.623 57.1496 409.39 56.7987 429.302 70.176C444.419 80.3369 380.106 121.229 397.328 180.192C339.287 160.338 281.611 145.542 281.611 145.542Z"
    fill="#263238"
  />
  <path
    opacity="0.5"
    d="M307.971 143.627C331.421 92.4715 385.925 72.0181 411.422 76.565C435.501 80.8632 363.527 137.048 378.22 186.522C343.453 163.115 307.971 143.627 307.971 143.627Z"
    fill="#08B74F"
  />
  <path
    d="M306.377 135.732C315.763 131.024 325.178 129.562 336.099 132.72C323.278 135.981 320.456 146.873 320.456 146.873L306.377 135.732Z"
    fill="#263238"
  />
  <path
    d="M307.591 131.638C313.877 126.112 320.836 123.086 329.901 123.305C320.661 128.407 320.705 137.384 320.705 137.384L307.591 131.638Z"
    fill="#263238"
  />
  <path
    d="M414.55 184.709C429.287 219.11 376.129 260.748 302.123 292.444C228.116 324.155 161.303 333.906 146.566 299.52C131.829 265.119 167.385 182.399 241.391 150.688C315.398 118.992 399.814 150.308 414.55 184.709Z"
    fill="#08B74F"
  />
  <path
    opacity="0.1"
    d="M385.34 187.984C399.009 219.885 357.372 256.42 297.649 282.005C237.941 307.59 182.765 312.532 169.095 280.631C155.426 248.73 188.452 192.078 248.16 166.493C307.868 140.908 371.67 156.083 385.34 187.984Z"
    fill="black"
  />
  <path
    d="M265.193 234.461C263.906 231.449 267.839 227.999 273.482 225.587C279.125 223.174 284.33 222.706 285.631 225.718C286.918 228.73 284.944 236.742 279.301 239.154C273.643 241.566 266.479 237.473 265.193 234.461Z"
    fill="#263238"
  />
  <path
    opacity="0.3"
    d="M277.137 261.318C276.26 259.286 280.397 256.318 286.041 253.891C291.684 251.479 296.684 250.528 297.561 252.561C298.438 254.593 295.617 260.645 289.973 263.058C284.345 265.485 278.014 263.35 277.137 261.318Z"
    fill="black"
  />
  <path
    opacity="0.4"
    d="M172.706 236.508C180.777 213.423 199.169 196.317 217.941 192.034C249.593 184.811 258.847 224.446 243.584 251.771C226.508 282.341 188.788 277.692 185.133 263.701C179.797 273.014 158.247 277.882 172.706 236.508Z"
    fill="white"
  />
  <path
    d="M243.599 210.455C243.599 210.455 241.45 238.54 226.625 248.394C211.8 258.248 189.9 246.157 189.9 246.157C189.9 246.157 192.049 218.072 206.873 208.218C221.698 198.364 243.599 210.455 243.599 210.455Z"
    fill="white"
  />
  <path
    d="M189.899 246.157C189.768 239.329 190.762 232.473 192.853 225.864C193.832 222.531 195.28 219.329 197.034 216.244C198.774 213.16 201.113 210.338 203.92 207.984C206.727 205.616 210.236 204.051 213.774 203.291C217.327 202.56 220.967 202.429 224.447 202.984C231.406 203.993 237.941 206.639 243.599 210.455C237.21 208.13 230.66 206.464 224.154 206.098C220.909 205.937 217.677 206.142 214.651 206.975C211.625 207.75 208.774 209.037 206.435 211.098C204.022 213.028 201.932 215.47 200.25 218.218L199.578 219.227L198.993 220.294C198.613 221.011 198.189 221.698 197.824 222.443C197.136 223.935 196.391 225.397 195.777 226.932C193.233 233.043 191.405 239.534 189.899 246.157Z"
    fill="#263238"
  />
  <path
    d="M283.146 193.51C283.146 193.51 304.959 211.332 322.313 207.399C339.681 203.467 346.026 179.27 346.026 179.27C346.026 179.27 324.213 161.449 306.859 165.381C289.491 169.329 283.146 193.51 283.146 193.51Z"
    fill="white"
  />
  <path
    d="M346.027 179.27C340.179 175.791 334.228 172.633 328.059 170.25C326.524 169.636 324.945 169.168 323.395 168.627C322.62 168.379 321.816 168.203 321.041 167.998L319.857 167.691L318.658 167.487C315.5 166.814 312.298 166.639 309.228 167.048C306.129 167.311 303.234 168.496 300.588 170.148C297.898 171.756 295.514 173.949 293.395 176.42C289.169 181.39 285.851 187.282 283.131 193.51C284.272 186.785 286.859 180.235 290.938 174.49C292.927 171.595 295.529 169.036 298.512 166.975C301.509 164.943 305.047 163.481 308.702 163.086C312.342 162.677 315.997 162.925 319.433 163.788C322.869 164.636 326.187 165.805 329.272 167.399C335.529 170.455 341.187 174.475 346.027 179.27Z"
    fill="#263238"
  />
  <path
    d="M211.376 234.3C214.812 242.341 224.125 246.055 232.151 242.619C240.192 239.183 243.906 229.87 240.47 221.844C237.034 213.803 227.721 210.089 219.68 213.525C211.654 216.961 207.941 226.259 211.376 234.3Z"
    fill="#263238"
  />
  <path
    d="M213.204 229.022C214.651 232.4 218.569 233.979 221.961 232.531C225.338 231.084 226.917 227.166 225.47 223.774C224.023 220.397 220.104 218.818 216.713 220.265C213.321 221.712 211.742 225.63 213.204 229.022Z"
    fill="white"
  />
  <path
    d="M292.941 199.358C296.377 207.399 305.69 211.113 313.731 207.677C321.772 204.241 325.485 194.928 322.05 186.902C318.614 178.861 309.301 175.148 301.275 178.583C293.219 182.019 289.506 191.317 292.941 199.358Z"
    fill="#263238"
  />
  <path
    d="M294.769 194.066C296.216 197.443 300.134 199.022 303.526 197.575C306.903 196.127 308.482 192.209 307.035 188.817C305.587 185.44 301.669 183.861 298.277 185.308C294.886 186.77 293.321 190.689 294.769 194.066Z"
    fill="white"
  />
  <path
    d="M228.248 229.052C228.833 230.411 230.397 231.025 231.742 230.455C233.102 229.87 233.716 228.306 233.145 226.961C232.561 225.601 230.996 224.973 229.651 225.557C228.292 226.128 227.663 227.692 228.248 229.052Z"
    fill="white"
  />
  <path
    d="M309.813 194.095C310.397 195.455 311.962 196.069 313.307 195.499C314.666 194.914 315.281 193.35 314.71 192.004C314.126 190.645 312.561 190.031 311.216 190.601C309.857 191.186 309.228 192.75 309.813 194.095Z"
    fill="white"
  />
  <path
    d="M301.318 243.964C300.514 244.476 299.71 245.002 298.877 245.484C298 245.879 297.137 246.332 296.216 246.654C294.374 247.297 292.4 247.692 290.368 247.692C288.35 247.677 286.304 247.224 284.418 246.405C282.517 245.543 280.865 244.403 279.403 242.677L281.786 241.654C282.02 243.905 281.713 245.879 281.026 247.867C280.309 249.797 279.242 251.596 277.853 253.058C276.45 254.52 274.812 255.675 273.073 256.566C272.195 257.005 271.274 257.327 270.383 257.692C269.461 257.97 268.511 258.189 267.59 258.423C268.423 257.941 269.242 257.473 270.075 257.034C270.85 256.493 271.669 256.04 272.385 255.47C273.862 254.373 275.178 253.101 276.274 251.713C277.312 250.28 278.16 248.745 278.643 247.078C278.906 246.259 279.067 245.411 279.169 244.563C279.242 243.73 279.257 242.794 279.169 242.107C279.067 241.376 279.578 240.689 280.309 240.587C280.792 240.514 281.26 240.733 281.552 241.084C281.991 241.639 282.678 242.268 283.336 242.794C284.023 243.306 284.754 243.774 285.529 244.154C287.064 244.958 288.76 245.397 290.514 245.645C292.283 245.806 294.096 245.733 295.909 245.411C296.83 245.294 297.707 245.002 298.643 244.827C299.491 244.52 300.397 244.227 301.318 243.964Z"
    fill="#263238"
  />
  <path
    d="M280.456 243.204C279.944 243.204 279.447 242.897 279.228 242.4L275.149 232.897C274.856 232.224 275.178 231.435 275.851 231.142C276.523 230.85 277.313 231.157 277.605 231.844L281.684 241.347C281.976 242.02 281.655 242.809 280.982 243.101C280.807 243.175 280.631 243.204 280.456 243.204Z"
    fill="#263238"
  />
  <path
    d="M147.575 263.496C135.718 269.066 127.18 280.909 124.958 294.915C135.44 282.137 147.633 285.894 147.633 285.894L147.575 263.496Z"
    fill="#08B74F"
  />
  <path
    d="M148.788 298.043C144.578 307.078 145.352 318.16 150.893 327.444C150.791 314.871 159.753 311.114 159.753 311.114L148.788 298.043Z"
    fill="#08B74F"
  />
  <path
    d="M148.101 278.745C136.142 287.663 129.314 302.824 130.031 318.965C138.803 302.327 153.276 303.731 153.276 303.731L148.101 278.745Z"
    fill="#08B74F"
  />
  <path
    d="M387.781 160.586C399.989 155.849 414.463 157.823 426.144 165.893C409.667 164.665 403.966 176.098 403.966 176.098L387.781 160.586Z"
    fill="#08B74F"
  />
  <path
    d="M408.015 184.709C417.854 183.101 428.585 184.358 435.164 190.747C421.597 190.747 413.088 198.803 413.088 198.803L408.015 184.709Z"
    fill="#08B74F"
  />
  <path
    d="M404.726 183.276C413.659 187.706 421.641 194.987 423.249 204.022C412.226 196.098 400.618 197.677 400.618 197.677L404.726 183.276Z"
    fill="#08B74F"
  />
  <path
    d="M398.454 171.493C413.162 168.993 428.849 174.504 440.033 186.156C421.934 181.025 412.972 192.472 412.972 192.472L398.454 171.493Z"
    fill="#08B74F"
  />
  <path
    d="M232.722 157.209C232.166 148.934 236.172 141.799 246.055 134.46C243.979 146.273 252.532 149.226 252.532 149.226L232.722 157.209Z"
    fill="#08B74F"
  />
  <path
    d="M243.57 152.604C245.529 142.984 255.383 133.539 269.725 127.56C259.535 138.583 267.736 145.425 267.736 145.425L243.57 152.604Z"
    fill="#08B74F"
  />
  <path
    d="M162.005 325.368C161.873 325.368 161.741 325.324 161.639 325.251C161.332 325.046 161.244 324.637 161.449 324.33C200.221 266.406 270.733 243.569 271.45 243.335C271.801 243.233 272.181 243.423 272.283 243.774C272.4 244.125 272.195 244.505 271.845 244.607C271.143 244.827 201.055 267.546 162.56 325.076C162.443 325.266 162.224 325.368 162.005 325.368Z"
    fill="#263238"
  />
  <path
    d="M172.677 361.86C172.604 361.86 172.531 361.845 172.458 361.83C172.107 361.713 171.917 361.333 172.048 360.982C198.803 282.824 268.818 248.979 269.52 248.642C269.856 248.482 270.251 248.628 270.412 248.964C270.573 249.3 270.426 249.695 270.09 249.856C269.388 250.192 199.87 283.818 173.306 361.421C173.203 361.684 172.94 361.86 172.677 361.86Z"
    fill="#263238"
  />
  <path
    d="M288.044 237.619C287.81 237.619 287.59 237.502 287.459 237.283C287.269 236.961 287.386 236.552 287.707 236.376C288.351 236.011 352.781 199.344 421.685 209.782C422.05 209.841 422.299 210.177 422.241 210.543C422.182 210.908 421.846 211.142 421.48 211.098C353.044 200.733 289.008 237.166 288.365 237.531C288.277 237.59 288.16 237.619 288.044 237.619Z"
    fill="#263238"
  />
  <path
    d="M426.319 242.531C426.246 242.531 426.188 242.517 426.115 242.502C344.535 216.171 293.935 239.607 293.438 239.841C293.102 240.002 292.707 239.856 292.546 239.534C292.386 239.198 292.532 238.803 292.853 238.642C293.365 238.394 344.389 214.724 426.524 241.245C426.875 241.362 427.065 241.727 426.948 242.078C426.86 242.356 426.597 242.531 426.319 242.531Z"
    fill="#263238"
  />
  <path
    d="M275.404 599.848C288.007 586.24 287.192 564.992 273.584 552.389C259.976 539.787 238.728 540.602 226.125 554.209C213.523 567.817 214.338 589.065 227.946 601.668C241.553 614.27 262.801 613.455 275.404 599.848Z"
    fill="#156419"
  />
  <path
    d="M344.989 612.022C328.336 612.022 322.474 605.721 316.801 599.625C314.828 597.505 312.971 595.502 310.646 593.733C302.137 587.242 288.731 584.274 281.933 587.388C281.231 587.709 280.383 587.402 280.061 586.686C279.74 585.984 280.047 585.136 280.763 584.815C288.497 581.277 302.971 584.318 312.357 591.481C314.871 593.397 316.904 595.575 318.863 597.695C324.36 603.601 329.565 609.186 344.989 609.186C353 609.186 359.974 605.283 363.614 598.733C366.758 593.09 366.831 586.569 363.834 581.701C360.34 576.072 353.147 573.221 343.556 573.66C342.796 573.718 342.123 573.089 342.079 572.315C342.035 571.54 342.649 570.882 343.424 570.838C354.068 570.355 362.167 573.66 366.217 580.209C369.77 585.94 369.711 593.557 366.071 600.093C361.933 607.578 354.053 612.022 344.989 612.022Z"
    fill="#156419"
  />
  <path
    d="M264.944 602.636C244.827 602.636 227.327 593.718 216.83 584.391C216.245 583.879 216.201 582.987 216.713 582.402C217.224 581.817 218.116 581.774 218.701 582.285C230.426 592.709 251.274 602.607 274.564 599.098C275.339 598.967 276.055 599.508 276.172 600.283C276.289 601.057 275.763 601.774 274.988 601.891C271.581 602.402 268.219 602.636 264.944 602.636Z"
    fill="#156419"
  />
  <path
    d="M261.26 606.818C244.023 606.818 229.3 600.034 216.45 586.204C215.923 585.633 215.952 584.742 216.523 584.215C217.093 583.689 217.985 583.718 218.511 584.288C232.736 599.595 249.359 605.882 269.33 603.514C270.105 603.411 270.807 603.967 270.894 604.742C270.982 605.517 270.441 606.218 269.666 606.306C266.801 606.657 263.994 606.818 261.26 606.818Z"
    fill="#156419"
  />
  <path
    d="M235.792 608.514C235.061 608.514 234.447 607.943 234.388 607.212C233.16 590.721 238.847 564.464 254.301 542.972C254.754 542.344 255.631 542.197 256.274 542.651C256.903 543.104 257.049 543.981 256.596 544.624C241.567 565.545 236.026 591.028 237.21 607.008C237.268 607.783 236.684 608.455 235.909 608.514C235.85 608.514 235.821 608.514 235.792 608.514Z"
    fill="#156419"
  />
  <path
    d="M221.771 595.429C221.508 595.429 221.26 595.356 221.026 595.209C220.368 594.8 220.178 593.923 220.587 593.265C225.499 585.502 243.745 559.464 272.342 550.311C273.087 550.078 273.877 550.487 274.111 551.218C274.345 551.963 273.935 552.753 273.204 552.987C245.514 561.847 227.765 587.198 222.985 594.756C222.692 595.195 222.239 595.429 221.771 595.429Z"
    fill="#156419"
  />
  <path
    d="M221.771 595.429C221.596 595.429 221.42 595.399 221.245 595.326C220.529 595.034 220.178 594.215 220.47 593.499C224.564 583.338 237.459 558.542 268.76 547.651C269.491 547.387 270.295 547.782 270.558 548.513C270.807 549.244 270.427 550.048 269.696 550.311C239.491 560.823 227.035 584.742 223.087 594.552C222.853 595.092 222.327 595.429 221.771 595.429Z"
    fill="#156419"
  />
  <path
    d="M231.625 606.057C230.923 606.057 230.309 605.531 230.222 604.815C226.684 574.347 236.684 556.92 248.029 542.621C248.511 542.007 249.403 541.905 250.003 542.387C250.617 542.87 250.719 543.762 250.236 544.361C239.271 558.177 229.608 575.019 233.029 604.464C233.116 605.239 232.561 605.941 231.786 606.028C231.728 606.043 231.669 606.057 231.625 606.057Z"
    fill="#156419"
  />
  <path
    d="M227.707 602.87C227.093 602.87 226.523 602.461 226.347 601.832C221.888 585.677 225.222 560.414 243.117 543.104C243.672 542.563 244.564 542.577 245.105 543.133C245.646 543.689 245.631 544.58 245.076 545.121C228.774 560.911 224.681 585.224 229.067 601.087C229.271 601.832 228.833 602.607 228.087 602.826C227.956 602.856 227.824 602.87 227.707 602.87Z"
    fill="#156419"
  />
  <path
    d="M283.994 583.133C283.701 583.133 283.424 583.046 283.175 582.87C262.254 567.841 236.771 562.285 220.792 563.484C220.017 563.513 219.344 562.958 219.286 562.183C219.227 561.408 219.812 560.735 220.587 560.677C237.078 559.464 263.336 565.136 284.827 580.589C285.456 581.043 285.602 581.92 285.149 582.563C284.871 582.929 284.432 583.133 283.994 583.133Z"
    fill="#156419"
  />
  <path
    d="M284.242 579.23C284.052 579.23 283.862 579.186 283.672 579.113C264.929 570.794 236.567 569.698 217.707 576.54C216.976 576.803 216.172 576.423 215.894 575.692C215.631 574.961 216.011 574.157 216.742 573.879C236.216 566.803 265.47 567.943 284.813 576.525C285.529 576.847 285.851 577.68 285.529 578.382C285.295 578.923 284.783 579.23 284.242 579.23Z"
    fill="#156419"
  />
  <path
    d="M284.184 575.282C283.804 575.282 283.424 575.136 283.146 574.829C269.242 559.712 251.231 554.332 224.71 557.417C223.935 557.504 223.233 556.949 223.146 556.174C223.058 555.399 223.613 554.697 224.388 554.61C251.508 551.466 270.836 557.271 285.222 572.914C285.748 573.484 285.705 574.376 285.134 574.902C284.871 575.165 284.52 575.282 284.184 575.282Z"
    fill="#156419"
  />
  <path
    d="M283.131 569.551C282.766 569.551 282.415 569.42 282.137 569.142C264.754 551.803 240.236 549.288 229.14 553.06C228.394 553.309 227.605 552.914 227.356 552.183C227.108 551.452 227.502 550.648 228.233 550.399C240.002 546.408 265.894 548.981 284.126 567.154C284.681 567.709 284.681 568.601 284.126 569.142C283.862 569.405 283.497 569.551 283.131 569.551Z"
    fill="#156419"
  />
  <path
    d="M276.611 599.873C276.479 599.873 276.348 599.859 276.216 599.815C242.605 589.844 217.882 567.241 217.634 567.022C217.064 566.496 217.02 565.604 217.561 565.034C218.087 564.464 218.979 564.42 219.549 564.961C219.783 565.18 244.067 587.344 277.02 597.125C277.766 597.344 278.19 598.133 277.971 598.879C277.781 599.478 277.225 599.873 276.611 599.873Z"
    fill="#156419"
  />
  <path
    d="M277.313 599.011C277.123 599.011 276.932 598.967 276.757 598.894C245.953 585.575 218.789 566.569 218.511 566.379C217.868 565.926 217.721 565.048 218.175 564.42C218.628 563.776 219.505 563.63 220.134 564.083C220.397 564.273 247.327 583.119 277.868 596.321C278.585 596.628 278.906 597.461 278.599 598.177C278.38 598.689 277.854 599.011 277.313 599.011Z"
    fill="#156419"
  />
  <path
    d="M278.555 597.271C278.336 597.271 278.102 597.212 277.883 597.11C249.125 581.657 218.979 566.627 218.686 566.481C217.985 566.13 217.707 565.282 218.058 564.595C218.409 563.893 219.257 563.616 219.944 563.966C220.251 564.113 250.426 579.157 279.228 594.639C279.915 595.005 280.163 595.867 279.798 596.554C279.549 597.008 279.067 597.271 278.555 597.271Z"
    fill="#156419"
  />
  <path
    d="M279.55 595.721C279.243 595.721 278.936 595.619 278.687 595.414C252.576 574.931 219.754 565.443 219.417 565.355C218.672 565.136 218.233 564.361 218.453 563.616C218.672 562.87 219.447 562.431 220.192 562.651C220.529 562.753 253.862 572.373 280.427 593.206C281.041 593.689 281.143 594.566 280.661 595.18C280.383 595.546 279.974 595.721 279.55 595.721Z"
    fill="#156419"
  />
  <path
    d="M282.254 590.049C281.933 590.049 281.626 589.946 281.362 589.727C257.444 570.078 220.017 565.443 219.637 565.399C218.862 565.312 218.306 564.61 218.409 563.835C218.496 563.06 219.198 562.505 219.973 562.607C220.353 562.651 258.599 567.388 283.161 587.549C283.76 588.046 283.848 588.937 283.351 589.537C283.073 589.873 282.664 590.049 282.254 590.049Z"
    fill="#156419"
  />
  <path
    d="M238.175 609.581C237.736 609.581 237.312 609.376 237.034 608.996C236.581 608.367 236.713 607.49 237.356 607.022C264.008 587.753 279.228 560.999 279.374 560.721C279.754 560.048 280.617 559.8 281.289 560.18C281.962 560.56 282.21 561.423 281.83 562.095C281.669 562.373 266.157 589.668 239.008 609.288C238.76 609.493 238.467 609.581 238.175 609.581Z"
    fill="#156419"
  />
  <g opacity="0.3">
    <path
      d="M264.944 602.636C244.827 602.636 227.327 593.718 216.83 584.391C216.245 583.879 216.201 582.987 216.713 582.402C217.224 581.817 218.116 581.774 218.701 582.285C230.426 592.709 251.274 602.607 274.564 599.098C275.339 598.967 276.055 599.508 276.172 600.283C276.289 601.057 275.763 601.774 274.988 601.891C271.581 602.402 268.219 602.636 264.944 602.636Z"
      fill="black"
    />
    <path
      d="M261.26 606.818C244.023 606.818 229.3 600.034 216.45 586.204C215.923 585.633 215.952 584.742 216.523 584.215C217.093 583.689 217.985 583.718 218.511 584.288C232.736 599.595 249.359 605.882 269.33 603.514C270.105 603.411 270.807 603.967 270.894 604.742C270.982 605.517 270.441 606.218 269.666 606.306C266.801 606.657 263.994 606.818 261.26 606.818Z"
      fill="black"
    />
    <path
      d="M235.792 608.514C235.061 608.514 234.447 607.943 234.388 607.212C233.16 590.721 238.847 564.464 254.301 542.972C254.754 542.344 255.631 542.197 256.274 542.651C256.903 543.104 257.049 543.981 256.596 544.624C241.567 565.545 236.026 591.028 237.21 607.008C237.268 607.783 236.684 608.455 235.909 608.514C235.85 608.514 235.821 608.514 235.792 608.514Z"
      fill="black"
    />
    <path
      d="M221.771 595.429C221.508 595.429 221.26 595.356 221.026 595.209C220.368 594.8 220.178 593.923 220.587 593.265C225.499 585.502 243.745 559.464 272.342 550.311C273.087 550.078 273.877 550.487 274.111 551.218C274.345 551.963 273.935 552.753 273.204 552.987C245.514 561.847 227.765 587.198 222.985 594.756C222.692 595.195 222.239 595.429 221.771 595.429Z"
      fill="black"
    />
    <path
      d="M221.771 595.429C221.596 595.429 221.42 595.399 221.245 595.326C220.529 595.034 220.178 594.215 220.47 593.499C224.564 583.338 237.459 558.542 268.76 547.651C269.491 547.387 270.295 547.782 270.558 548.513C270.807 549.244 270.427 550.048 269.696 550.311C239.491 560.823 227.035 584.742 223.087 594.552C222.853 595.092 222.327 595.429 221.771 595.429Z"
      fill="black"
    />
    <path
      d="M231.625 606.057C230.923 606.057 230.309 605.531 230.222 604.815C226.684 574.347 236.684 556.92 248.029 542.621C248.511 542.007 249.403 541.905 250.003 542.387C250.617 542.87 250.719 543.762 250.236 544.361C239.271 558.177 229.608 575.019 233.029 604.464C233.116 605.239 232.561 605.941 231.786 606.028C231.728 606.043 231.669 606.057 231.625 606.057Z"
      fill="black"
    />
    <path
      d="M227.707 602.87C227.093 602.87 226.523 602.461 226.347 601.832C221.888 585.677 225.222 560.414 243.117 543.104C243.672 542.563 244.564 542.577 245.105 543.133C245.646 543.689 245.631 544.58 245.076 545.121C228.774 560.911 224.681 585.224 229.067 601.087C229.271 601.832 228.833 602.607 228.087 602.826C227.956 602.856 227.824 602.87 227.707 602.87Z"
      fill="black"
    />
    <path
      d="M283.994 583.133C283.701 583.133 283.424 583.046 283.175 582.87C262.254 567.841 236.771 562.285 220.792 563.484C220.017 563.513 219.344 562.958 219.286 562.183C219.227 561.408 219.812 560.735 220.587 560.677C237.078 559.464 263.336 565.136 284.827 580.589C285.456 581.043 285.602 581.92 285.149 582.563C284.871 582.929 284.432 583.133 283.994 583.133Z"
      fill="black"
    />
    <path
      d="M284.242 579.23C284.052 579.23 283.862 579.186 283.672 579.113C264.929 570.794 236.567 569.698 217.707 576.54C216.976 576.803 216.172 576.423 215.894 575.692C215.631 574.961 216.011 574.157 216.742 573.879C236.216 566.803 265.47 567.943 284.813 576.525C285.529 576.847 285.851 577.68 285.529 578.382C285.295 578.923 284.783 579.23 284.242 579.23Z"
      fill="black"
    />
    <path
      d="M284.184 575.282C283.804 575.282 283.424 575.136 283.146 574.829C269.242 559.712 251.231 554.332 224.71 557.417C223.935 557.504 223.233 556.949 223.146 556.174C223.058 555.399 223.613 554.697 224.388 554.61C251.508 551.466 270.836 557.271 285.222 572.914C285.748 573.484 285.705 574.376 285.134 574.902C284.871 575.165 284.52 575.282 284.184 575.282Z"
      fill="black"
    />
    <path
      d="M283.131 569.551C282.766 569.551 282.415 569.42 282.137 569.142C264.754 551.803 240.236 549.288 229.14 553.06C228.394 553.309 227.605 552.914 227.356 552.183C227.108 551.452 227.502 550.648 228.233 550.399C240.002 546.408 265.894 548.981 284.126 567.154C284.681 567.709 284.681 568.601 284.126 569.142C283.862 569.405 283.497 569.551 283.131 569.551Z"
      fill="black"
    />
    <path
      d="M276.611 599.873C276.479 599.873 276.348 599.859 276.216 599.815C242.605 589.844 217.882 567.241 217.634 567.022C217.064 566.496 217.02 565.604 217.561 565.034C218.087 564.464 218.979 564.42 219.549 564.961C219.783 565.18 244.067 587.344 277.02 597.125C277.766 597.344 278.19 598.133 277.971 598.879C277.781 599.478 277.225 599.873 276.611 599.873Z"
      fill="black"
    />
    <path
      d="M277.313 599.011C277.123 599.011 276.932 598.967 276.757 598.894C245.953 585.575 218.789 566.569 218.511 566.379C217.868 565.926 217.721 565.048 218.175 564.42C218.628 563.776 219.505 563.63 220.134 564.083C220.397 564.273 247.327 583.119 277.868 596.321C278.585 596.628 278.906 597.461 278.599 598.177C278.38 598.689 277.854 599.011 277.313 599.011Z"
      fill="black"
    />
    <path
      d="M278.555 597.271C278.336 597.271 278.102 597.212 277.883 597.11C249.125 581.657 218.979 566.627 218.686 566.481C217.985 566.13 217.707 565.282 218.058 564.595C218.409 563.893 219.257 563.616 219.944 563.966C220.251 564.113 250.426 579.157 279.228 594.639C279.915 595.005 280.163 595.867 279.798 596.554C279.549 597.008 279.067 597.271 278.555 597.271Z"
      fill="black"
    />
    <path
      d="M279.55 595.721C279.243 595.721 278.936 595.619 278.687 595.414C252.576 574.931 219.754 565.443 219.417 565.355C218.672 565.136 218.233 564.361 218.453 563.616C218.672 562.87 219.447 562.431 220.192 562.651C220.529 562.753 253.862 572.373 280.427 593.206C281.041 593.689 281.143 594.566 280.661 595.18C280.383 595.546 279.974 595.721 279.55 595.721Z"
      fill="black"
    />
    <path
      d="M282.254 590.049C281.933 590.049 281.626 589.946 281.362 589.727C257.444 570.078 220.017 565.443 219.637 565.399C218.862 565.312 218.306 564.61 218.409 563.835C218.496 563.06 219.198 562.505 219.973 562.607C220.353 562.651 258.599 567.388 283.161 587.549C283.76 588.046 283.848 588.937 283.351 589.537C283.073 589.873 282.664 590.049 282.254 590.049Z"
      fill="black"
    />
    <path
      d="M238.175 609.581C237.736 609.581 237.312 609.376 237.034 608.996C236.581 608.367 236.713 607.49 237.356 607.022C264.008 587.753 279.228 560.999 279.374 560.721C279.754 560.048 280.617 559.8 281.289 560.18C281.962 560.56 282.21 561.423 281.83 562.095C281.669 562.373 266.157 589.668 239.008 609.288C238.76 609.493 238.467 609.581 238.175 609.581Z"
      fill="black"
    />
  </g>
</svg>
